<mxfile host="Electron" agent="Mozilla/5.0 (X11; Linux x86_64) AppleWebKit/537.36 (KHTML, like Gecko) draw.io/27.0.9 Chrome/134.0.6998.205 Electron/35.5.1 Safari/537.36" version="27.0.9">
  <diagram name="PÃ¡gina-1" id="mJ_B0rPFDPpI5rhPjDGr">
    <mxGraphModel dx="1141" dy="670" grid="1" gridSize="10" guides="1" tooltips="1" connect="1" arrows="1" fold="1" page="1" pageScale="1" pageWidth="827" pageHeight="1169" math="0" shadow="0">
      <root>
        <mxCell id="0" />
        <mxCell id="1" parent="0" />
        <mxCell id="JYxsRkKmfjCoyZlYvtPY-12" value="&lt;div&gt;&lt;div&gt;&lt;span style=&quot;background-color: transparent;&quot;&gt;&lt;font style=&quot;color: rgb(255, 255, 255);&quot;&gt;&amp;lt;&amp;lt;entidade&amp;gt;&amp;gt;&lt;/font&gt;&lt;/span&gt;&lt;/div&gt;&lt;font style=&quot;font-size: 14px; color: rgb(255, 255, 255);&quot;&gt;&lt;/font&gt;&lt;div&gt;&lt;span style=&quot;font-size: 14px; background-color: transparent;&quot;&gt;&lt;font style=&quot;color: rgb(255, 255, 255);&quot;&gt;Militar&lt;/font&gt;&lt;/span&gt;&lt;/div&gt;&lt;/div&gt;" style="swimlane;fontStyle=0;childLayout=stackLayout;horizontal=1;startSize=40;fillColor=#647687;horizontalStack=0;resizeParent=1;resizeParentMax=0;resizeLast=0;collapsible=1;marginBottom=0;whiteSpace=wrap;html=1;fontColor=#ffffff;strokeColor=#314354;" parent="1" vertex="1">
          <mxGeometry x="254" y="350" width="250" height="222" as="geometry" />
        </mxCell>
        <mxCell id="63Evb4M67FqfuCzrcVg2-36" value="- matricula: String &amp;lt;&amp;lt;id&amp;gt;&amp;gt;" style="text;strokeColor=none;fillColor=none;align=left;verticalAlign=top;spacingLeft=4;spacingRight=4;overflow=hidden;rotatable=0;points=[[0,0.5],[1,0.5]];portConstraint=eastwest;whiteSpace=wrap;html=1;" vertex="1" parent="JYxsRkKmfjCoyZlYvtPY-12">
          <mxGeometry y="40" width="250" height="26" as="geometry" />
        </mxCell>
        <mxCell id="63Evb4M67FqfuCzrcVg2-37" value="- nomePaz: String" style="text;strokeColor=none;fillColor=none;align=left;verticalAlign=top;spacingLeft=4;spacingRight=4;overflow=hidden;rotatable=0;points=[[0,0.5],[1,0.5]];portConstraint=eastwest;whiteSpace=wrap;html=1;" vertex="1" parent="JYxsRkKmfjCoyZlYvtPY-12">
          <mxGeometry y="66" width="250" height="26" as="geometry" />
        </mxCell>
        <mxCell id="63Evb4M67FqfuCzrcVg2-38" value="- nascimento: Date" style="text;strokeColor=none;fillColor=none;align=left;verticalAlign=top;spacingLeft=4;spacingRight=4;overflow=hidden;rotatable=0;points=[[0,0.5],[1,0.5]];portConstraint=eastwest;whiteSpace=wrap;html=1;" vertex="1" parent="JYxsRkKmfjCoyZlYvtPY-12">
          <mxGeometry y="92" width="250" height="26" as="geometry" />
        </mxCell>
        <mxCell id="63Evb4M67FqfuCzrcVg2-39" value="- antiguidade: Integer" style="text;strokeColor=none;fillColor=none;align=left;verticalAlign=top;spacingLeft=4;spacingRight=4;overflow=hidden;rotatable=0;points=[[0,0.5],[1,0.5]];portConstraint=eastwest;whiteSpace=wrap;html=1;" vertex="1" parent="JYxsRkKmfjCoyZlYvtPY-12">
          <mxGeometry y="118" width="250" height="26" as="geometry" />
        </mxCell>
        <mxCell id="63Evb4M67FqfuCzrcVg2-40" value="- fongaEspecial: int" style="text;strokeColor=none;fillColor=none;align=left;verticalAlign=top;spacingLeft=4;spacingRight=4;overflow=hidden;rotatable=0;points=[[0,0.5],[1,0.5]];portConstraint=eastwest;whiteSpace=wrap;html=1;" vertex="1" parent="JYxsRkKmfjCoyZlYvtPY-12">
          <mxGeometry y="144" width="250" height="26" as="geometry" />
        </mxCell>
        <mxCell id="63Evb4M67FqfuCzrcVg2-41" value="- cov: Boolean" style="text;strokeColor=none;fillColor=none;align=left;verticalAlign=top;spacingLeft=4;spacingRight=4;overflow=hidden;rotatable=0;points=[[0,0.5],[1,0.5]];portConstraint=eastwest;whiteSpace=wrap;html=1;" vertex="1" parent="JYxsRkKmfjCoyZlYvtPY-12">
          <mxGeometry y="170" width="250" height="26" as="geometry" />
        </mxCell>
        <mxCell id="63Evb4M67FqfuCzrcVg2-42" value="- ultimosServicos: List&amp;lt;ServicoOperacional&amp;gt;" style="text;strokeColor=none;fillColor=none;align=left;verticalAlign=top;spacingLeft=4;spacingRight=4;overflow=hidden;rotatable=0;points=[[0,0.5],[1,0.5]];portConstraint=eastwest;whiteSpace=wrap;html=1;" vertex="1" parent="JYxsRkKmfjCoyZlYvtPY-12">
          <mxGeometry y="196" width="250" height="26" as="geometry" />
        </mxCell>
        <mxCell id="GjpR1vbcMMokd3FTTjFa-43" value="&lt;div&gt;&amp;lt;&amp;lt;classe abstrata&amp;gt;&amp;gt;&lt;/div&gt;&lt;div&gt;&lt;font style=&quot;font-size: 14px;&quot;&gt;ServicoOperacional&lt;/font&gt;&lt;/div&gt;" style="swimlane;fontStyle=0;childLayout=stackLayout;horizontal=1;startSize=40;fillColor=#647687;horizontalStack=0;resizeParent=1;resizeParentMax=0;resizeLast=0;collapsible=1;marginBottom=0;whiteSpace=wrap;html=1;fontColor=#ffffff;strokeColor=#314354;" parent="1" vertex="1">
          <mxGeometry x="254" y="31" width="150" height="118" as="geometry" />
        </mxCell>
        <mxCell id="63Evb4M67FqfuCzrcVg2-2" value="- id: Long &amp;lt;&amp;lt;id&amp;gt;&amp;gt;" style="text;strokeColor=none;fillColor=none;align=left;verticalAlign=top;spacingLeft=4;spacingRight=4;overflow=hidden;rotatable=0;points=[[0,0.5],[1,0.5]];portConstraint=eastwest;whiteSpace=wrap;html=1;" vertex="1" parent="GjpR1vbcMMokd3FTTjFa-43">
          <mxGeometry y="40" width="150" height="26" as="geometry" />
        </mxCell>
        <mxCell id="63Evb4M67FqfuCzrcVg2-5" value="- dataServico: Date" style="text;strokeColor=none;fillColor=none;align=left;verticalAlign=top;spacingLeft=4;spacingRight=4;overflow=hidden;rotatable=0;points=[[0,0.5],[1,0.5]];portConstraint=eastwest;whiteSpace=wrap;html=1;" vertex="1" parent="GjpR1vbcMMokd3FTTjFa-43">
          <mxGeometry y="66" width="150" height="26" as="geometry" />
        </mxCell>
        <mxCell id="63Evb4M67FqfuCzrcVg2-3" value="- folga: int" style="text;strokeColor=none;fillColor=none;align=left;verticalAlign=top;spacingLeft=4;spacingRight=4;overflow=hidden;rotatable=0;points=[[0,0.5],[1,0.5]];portConstraint=eastwest;whiteSpace=wrap;html=1;" vertex="1" parent="GjpR1vbcMMokd3FTTjFa-43">
          <mxGeometry y="92" width="150" height="26" as="geometry" />
        </mxCell>
        <mxCell id="GjpR1vbcMMokd3FTTjFa-50" value="&lt;font style=&quot;font-size: 14px;&quot;&gt;&lt;span style=&quot;font-size: 12px;&quot;&gt;&amp;lt;&amp;lt;entidade&amp;gt;&amp;gt;&lt;/span&gt;&lt;br style=&quot;font-size: 12px;&quot;&gt;Cov&lt;/font&gt;" style="swimlane;fontStyle=0;childLayout=stackLayout;horizontal=1;startSize=41;fillColor=#647687;horizontalStack=0;resizeParent=1;resizeParentMax=0;resizeLast=0;collapsible=1;marginBottom=0;whiteSpace=wrap;html=1;fontColor=#ffffff;strokeColor=#314354;" parent="1" vertex="1">
          <mxGeometry x="340" y="270" width="150" height="67" as="geometry" />
        </mxCell>
        <mxCell id="GjpR1vbcMMokd3FTTjFa-52" value="&lt;font style=&quot;font-size: 14px;&quot;&gt;&lt;span style=&quot;font-size: 12px;&quot;&gt;&amp;lt;&amp;lt;entidade&amp;gt;&amp;gt;&lt;/span&gt;&lt;br style=&quot;font-size: 12px;&quot;&gt;FiscalDia&lt;/font&gt;" style="swimlane;fontStyle=0;childLayout=stackLayout;horizontal=1;startSize=41;fillColor=#647687;horizontalStack=0;resizeParent=1;resizeParentMax=0;resizeLast=0;collapsible=1;marginBottom=0;whiteSpace=wrap;html=1;fontColor=#ffffff;strokeColor=#314354;" parent="1" vertex="1">
          <mxGeometry x="510" y="270" width="150" height="67" as="geometry" />
        </mxCell>
        <mxCell id="GjpR1vbcMMokd3FTTjFa-53" value="&amp;lt;&amp;lt;entidade&amp;gt;&amp;gt;&lt;br&gt;&lt;div&gt;&lt;span style=&quot;font-size: 14px;&quot;&gt;OperdorLinha&lt;/span&gt;&lt;/div&gt;" style="swimlane;fontStyle=0;childLayout=stackLayout;horizontal=1;startSize=41;fillColor=#647687;horizontalStack=0;resizeParent=1;resizeParentMax=0;resizeLast=0;collapsible=1;marginBottom=0;whiteSpace=wrap;html=1;fontColor=#ffffff;strokeColor=#314354;" parent="1" vertex="1">
          <mxGeometry x="652" y="190" width="150" height="67" as="geometry" />
        </mxCell>
        <mxCell id="GjpR1vbcMMokd3FTTjFa-54" value="&lt;font style=&quot;font-size: 14px;&quot;&gt;&lt;span style=&quot;font-size: 12px;&quot;&gt;&amp;lt;&amp;lt;entidade&amp;gt;&amp;gt;&lt;/span&gt;&lt;br style=&quot;font-size: 12px;&quot;&gt;AjudanteLinha&lt;/font&gt;" style="swimlane;fontStyle=0;childLayout=stackLayout;horizontal=1;startSize=37;fillColor=#647687;horizontalStack=0;resizeParent=1;resizeParentMax=0;resizeLast=0;collapsible=1;marginBottom=0;whiteSpace=wrap;html=1;fontColor=#ffffff;strokeColor=#314354;" parent="1" vertex="1">
          <mxGeometry x="652" y="110" width="150" height="63" as="geometry" />
        </mxCell>
        <mxCell id="GjpR1vbcMMokd3FTTjFa-55" value="&lt;font style=&quot;font-size: 14px;&quot;&gt;&lt;span style=&quot;font-size: 12px;&quot;&gt;&amp;lt;&amp;lt;entidade&amp;gt;&amp;gt;&lt;/span&gt;&lt;br style=&quot;font-size: 12px;&quot;&gt;Permanente&lt;/font&gt;" style="swimlane;fontStyle=0;childLayout=stackLayout;horizontal=1;startSize=39;fillColor=#647687;horizontalStack=0;resizeParent=1;resizeParentMax=0;resizeLast=0;collapsible=1;marginBottom=0;whiteSpace=wrap;html=1;fontColor=#ffffff;strokeColor=#314354;" parent="1" vertex="1">
          <mxGeometry x="652" y="31" width="150" height="65" as="geometry" />
        </mxCell>
        <mxCell id="GjpR1vbcMMokd3FTTjFa-59" value="" style="endArrow=block;html=1;endSize=12;startArrow=none;startSize=12;startFill=0;edgeStyle=orthogonalEdgeStyle;rounded=0;exitX=0;exitY=0.75;exitDx=0;exitDy=0;endFill=0;entryX=0.5;entryY=1;entryDx=0;entryDy=0;" parent="1" source="GjpR1vbcMMokd3FTTjFa-54" target="63Evb4M67FqfuCzrcVg2-23" edge="1">
          <mxGeometry relative="1" as="geometry">
            <mxPoint x="662" y="70" as="sourcePoint" />
            <mxPoint x="420" y="61" as="targetPoint" />
          </mxGeometry>
        </mxCell>
        <mxCell id="GjpR1vbcMMokd3FTTjFa-96" value="" style="endArrow=diamondThin;html=1;endSize=12;startArrow=none;startSize=14;startFill=0;edgeStyle=orthogonalEdgeStyle;rounded=0;endFill=0;exitX=0.25;exitY=0;exitDx=0;exitDy=0;entryX=0.5;entryY=1;entryDx=0;entryDy=0;" parent="1" source="JYxsRkKmfjCoyZlYvtPY-12" target="GjpR1vbcMMokd3FTTjFa-43" edge="1">
          <mxGeometry relative="1" as="geometry">
            <mxPoint x="321.98" y="440" as="sourcePoint" />
            <mxPoint x="338.48" y="148.9999999999999" as="targetPoint" />
            <Array as="points">
              <mxPoint x="316" y="300" />
              <mxPoint x="329" y="300" />
            </Array>
          </mxGeometry>
        </mxCell>
        <mxCell id="GjpR1vbcMMokd3FTTjFa-97" value="1" style="edgeLabel;resizable=0;html=1;align=left;verticalAlign=top;" parent="GjpR1vbcMMokd3FTTjFa-96" connectable="0" vertex="1">
          <mxGeometry x="-1" relative="1" as="geometry">
            <mxPoint x="-11" y="-21" as="offset" />
          </mxGeometry>
        </mxCell>
        <mxCell id="GjpR1vbcMMokd3FTTjFa-98" value="1..n" style="edgeLabel;resizable=0;html=1;align=right;verticalAlign=top;" parent="GjpR1vbcMMokd3FTTjFa-96" connectable="0" vertex="1">
          <mxGeometry x="1" relative="1" as="geometry">
            <mxPoint x="25" y="-4" as="offset" />
          </mxGeometry>
        </mxCell>
        <mxCell id="GjpR1vbcMMokd3FTTjFa-101" value="&amp;lt;&amp;lt;objeto de valor&amp;gt;&amp;gt;&lt;br&gt;&amp;lt;&amp;lt;enum&amp;gt;&amp;gt;&lt;br&gt;&lt;font style=&quot;font-size: 14px;&quot;&gt;Funcao&lt;/font&gt;" style="swimlane;fontStyle=0;childLayout=stackLayout;horizontal=1;startSize=50;fillColor=#647687;horizontalStack=0;resizeParent=1;resizeParentMax=0;resizeLast=0;collapsible=1;marginBottom=0;whiteSpace=wrap;html=1;fontColor=#ffffff;strokeColor=#314354;" parent="1" vertex="1">
          <mxGeometry x="54" y="70" width="170" height="180" as="geometry">
            <mxRectangle x="54" y="61" width="90" height="30" as="alternateBounds" />
          </mxGeometry>
        </mxCell>
        <mxCell id="GjpR1vbcMMokd3FTTjFa-102" value="- COV: Enum" style="text;strokeColor=none;fillColor=none;align=left;verticalAlign=top;spacingLeft=4;spacingRight=4;overflow=hidden;rotatable=0;points=[[0,0.5],[1,0.5]];portConstraint=eastwest;whiteSpace=wrap;html=1;" parent="GjpR1vbcMMokd3FTTjFa-101" vertex="1">
          <mxGeometry y="50" width="170" height="26" as="geometry" />
        </mxCell>
        <mxCell id="GjpR1vbcMMokd3FTTjFa-103" value="- FISCAL_DIA: Enum" style="text;strokeColor=none;fillColor=none;align=left;verticalAlign=top;spacingLeft=4;spacingRight=4;overflow=hidden;rotatable=0;points=[[0,0.5],[1,0.5]];portConstraint=eastwest;whiteSpace=wrap;html=1;" parent="GjpR1vbcMMokd3FTTjFa-101" vertex="1">
          <mxGeometry y="76" width="170" height="26" as="geometry" />
        </mxCell>
        <mxCell id="GjpR1vbcMMokd3FTTjFa-104" value="- OPERADOR_LINHA: Enum" style="text;strokeColor=none;fillColor=none;align=left;verticalAlign=top;spacingLeft=4;spacingRight=4;overflow=hidden;rotatable=0;points=[[0,0.5],[1,0.5]];portConstraint=eastwest;whiteSpace=wrap;html=1;" parent="GjpR1vbcMMokd3FTTjFa-101" vertex="1">
          <mxGeometry y="102" width="170" height="26" as="geometry" />
        </mxCell>
        <mxCell id="GjpR1vbcMMokd3FTTjFa-105" value="- AJUDANTE_LINHA: Enum" style="text;strokeColor=none;fillColor=none;align=left;verticalAlign=top;spacingLeft=4;spacingRight=4;overflow=hidden;rotatable=0;points=[[0,0.5],[1,0.5]];portConstraint=eastwest;whiteSpace=wrap;html=1;" parent="GjpR1vbcMMokd3FTTjFa-101" vertex="1">
          <mxGeometry y="128" width="170" height="26" as="geometry" />
        </mxCell>
        <mxCell id="GjpR1vbcMMokd3FTTjFa-106" value="- PERMANENTE: Enum" style="text;strokeColor=none;fillColor=none;align=left;verticalAlign=top;spacingLeft=4;spacingRight=4;overflow=hidden;rotatable=0;points=[[0,0.5],[1,0.5]];portConstraint=eastwest;whiteSpace=wrap;html=1;" parent="GjpR1vbcMMokd3FTTjFa-101" vertex="1">
          <mxGeometry y="154" width="170" height="26" as="geometry" />
        </mxCell>
        <mxCell id="GjpR1vbcMMokd3FTTjFa-107" value="" style="endArrow=none;html=1;endSize=12;startArrow=diamondThin;startSize=12;startFill=0;edgeStyle=orthogonalEdgeStyle;rounded=0;exitX=-0.003;exitY=0.14;exitDx=0;exitDy=0;entryX=0.5;entryY=0;entryDx=0;entryDy=0;exitPerimeter=0;" parent="1" source="GjpR1vbcMMokd3FTTjFa-43" target="GjpR1vbcMMokd3FTTjFa-101" edge="1">
          <mxGeometry relative="1" as="geometry">
            <mxPoint x="214" y="31" as="sourcePoint" />
            <mxPoint x="214" y="-49" as="targetPoint" />
          </mxGeometry>
        </mxCell>
        <mxCell id="GjpR1vbcMMokd3FTTjFa-108" value="&lt;span style=&quot;text-align: right;&quot;&gt;1..n&lt;/span&gt;" style="edgeLabel;resizable=0;html=1;align=left;verticalAlign=top;" parent="GjpR1vbcMMokd3FTTjFa-107" connectable="0" vertex="1">
          <mxGeometry x="-1" relative="1" as="geometry">
            <mxPoint x="-37" y="-21" as="offset" />
          </mxGeometry>
        </mxCell>
        <mxCell id="GjpR1vbcMMokd3FTTjFa-109" value="1" style="edgeLabel;resizable=0;html=1;align=right;verticalAlign=top;" parent="GjpR1vbcMMokd3FTTjFa-107" connectable="0" vertex="1">
          <mxGeometry x="1" relative="1" as="geometry">
            <mxPoint x="-3" y="-20" as="offset" />
          </mxGeometry>
        </mxCell>
        <mxCell id="GjpR1vbcMMokd3FTTjFa-111" value="&amp;lt;&amp;lt;objeto de valor&amp;gt;&amp;gt;&lt;br&gt;&lt;div&gt;&lt;span style=&quot;font-size: 14px;&quot;&gt;Escala&lt;/span&gt;&lt;/div&gt;" style="swimlane;fontStyle=0;childLayout=stackLayout;horizontal=1;startSize=39;fillColor=#647687;horizontalStack=0;resizeParent=1;resizeParentMax=0;resizeLast=0;collapsible=1;marginBottom=0;whiteSpace=wrap;html=1;fontColor=#ffffff;strokeColor=#314354;" parent="1" vertex="1">
          <mxGeometry x="74" y="270" width="150" height="65" as="geometry" />
        </mxCell>
        <mxCell id="999DKJYe4rII8vCywRU1-1" value="Contexto Escalante" style="swimlane;startSize=20;horizontal=0;childLayout=treeLayout;horizontalTree=1;sortEdges=1;resizable=1;containerType=tree;fontSize=16;fillColor=#003366;strokeColor=#10739e;fontColor=#FFFFFF;" parent="1" vertex="1">
          <mxGeometry x="14" y="10" width="800" height="570" as="geometry">
            <mxRectangle x="14" y="10" width="40" height="130" as="alternateBounds" />
          </mxGeometry>
        </mxCell>
        <mxCell id="63Evb4M67FqfuCzrcVg2-12" value="" style="endArrow=diamondThin;html=1;endSize=12;startArrow=none;startSize=14;startFill=0;edgeStyle=orthogonalEdgeStyle;rounded=0;endFill=1;entryX=0.25;entryY=1;entryDx=0;entryDy=0;exitX=1;exitY=0.25;exitDx=0;exitDy=0;" edge="1" parent="1" source="GjpR1vbcMMokd3FTTjFa-111" target="GjpR1vbcMMokd3FTTjFa-43">
          <mxGeometry relative="1" as="geometry">
            <mxPoint x="240" y="330" as="sourcePoint" />
            <mxPoint x="290" y="130" as="targetPoint" />
            <Array as="points">
              <mxPoint x="292" y="286" />
            </Array>
          </mxGeometry>
        </mxCell>
        <mxCell id="63Evb4M67FqfuCzrcVg2-13" value="1" style="edgeLabel;resizable=0;html=1;align=left;verticalAlign=top;" connectable="0" vertex="1" parent="63Evb4M67FqfuCzrcVg2-12">
          <mxGeometry x="-1" relative="1" as="geometry">
            <mxPoint x="2" y="-23" as="offset" />
          </mxGeometry>
        </mxCell>
        <mxCell id="63Evb4M67FqfuCzrcVg2-14" value="1..n" style="edgeLabel;resizable=0;html=1;align=right;verticalAlign=top;" connectable="0" vertex="1" parent="63Evb4M67FqfuCzrcVg2-12">
          <mxGeometry x="1" relative="1" as="geometry">
            <mxPoint x="25" y="-4" as="offset" />
          </mxGeometry>
        </mxCell>
        <mxCell id="63Evb4M67FqfuCzrcVg2-16" value="&amp;lt;&amp;lt;objeto de valor&amp;gt;&amp;gt;&lt;br&gt;&lt;div&gt;&lt;span style=&quot;font-size: 14px;&quot;&gt;DadosEscala&lt;/span&gt;&lt;/div&gt;" style="swimlane;fontStyle=0;childLayout=stackLayout;horizontal=1;startSize=39;fillColor=#647687;horizontalStack=0;resizeParent=1;resizeParentMax=0;resizeLast=0;collapsible=1;marginBottom=0;whiteSpace=wrap;html=1;fontColor=#ffffff;strokeColor=#314354;" vertex="1" parent="1">
          <mxGeometry x="74" y="390" width="150" height="117" as="geometry" />
        </mxCell>
        <mxCell id="63Evb4M67FqfuCzrcVg2-17" value="- dataInicio: Date" style="text;strokeColor=none;fillColor=none;align=left;verticalAlign=top;spacingLeft=4;spacingRight=4;overflow=hidden;rotatable=0;points=[[0,0.5],[1,0.5]];portConstraint=eastwest;whiteSpace=wrap;html=1;" vertex="1" parent="63Evb4M67FqfuCzrcVg2-16">
          <mxGeometry y="39" width="150" height="26" as="geometry" />
        </mxCell>
        <mxCell id="63Evb4M67FqfuCzrcVg2-18" value="- dataFim: Date" style="text;strokeColor=none;fillColor=none;align=left;verticalAlign=top;spacingLeft=4;spacingRight=4;overflow=hidden;rotatable=0;points=[[0,0.5],[1,0.5]];portConstraint=eastwest;whiteSpace=wrap;html=1;" vertex="1" parent="63Evb4M67FqfuCzrcVg2-16">
          <mxGeometry y="65" width="150" height="26" as="geometry" />
        </mxCell>
        <mxCell id="63Evb4M67FqfuCzrcVg2-19" value="- diasServico: int" style="text;strokeColor=none;fillColor=none;align=left;verticalAlign=top;spacingLeft=4;spacingRight=4;overflow=hidden;rotatable=0;points=[[0,0.5],[1,0.5]];portConstraint=eastwest;whiteSpace=wrap;html=1;" vertex="1" parent="63Evb4M67FqfuCzrcVg2-16">
          <mxGeometry y="91" width="150" height="26" as="geometry" />
        </mxCell>
        <mxCell id="63Evb4M67FqfuCzrcVg2-20" value="" style="endArrow=diamondThin;html=1;endSize=12;startArrow=none;startSize=14;startFill=0;edgeStyle=orthogonalEdgeStyle;rounded=0;endFill=1;exitX=0.5;exitY=0;exitDx=0;exitDy=0;entryX=0.5;entryY=1;entryDx=0;entryDy=0;" edge="1" parent="1" source="63Evb4M67FqfuCzrcVg2-16" target="GjpR1vbcMMokd3FTTjFa-111">
          <mxGeometry relative="1" as="geometry">
            <mxPoint x="170" y="430" as="sourcePoint" />
            <mxPoint x="210" y="340" as="targetPoint" />
            <Array as="points">
              <mxPoint x="149" y="360" />
              <mxPoint x="149" y="360" />
            </Array>
          </mxGeometry>
        </mxCell>
        <mxCell id="63Evb4M67FqfuCzrcVg2-21" value="1" style="edgeLabel;resizable=0;html=1;align=left;verticalAlign=top;" connectable="0" vertex="1" parent="63Evb4M67FqfuCzrcVg2-20">
          <mxGeometry x="-1" relative="1" as="geometry">
            <mxPoint x="3" y="-23" as="offset" />
          </mxGeometry>
        </mxCell>
        <mxCell id="63Evb4M67FqfuCzrcVg2-22" value="1" style="edgeLabel;resizable=0;html=1;align=right;verticalAlign=top;" connectable="0" vertex="1" parent="63Evb4M67FqfuCzrcVg2-20">
          <mxGeometry x="1" relative="1" as="geometry">
            <mxPoint x="12" y="5" as="offset" />
          </mxGeometry>
        </mxCell>
        <mxCell id="63Evb4M67FqfuCzrcVg2-23" value="&lt;div&gt;&amp;lt;&amp;lt;classe abstrata&amp;gt;&amp;gt;&lt;/div&gt;&lt;div&gt;&lt;font style=&quot;font-size: 14px;&quot;&gt;ModernosPrimeiro&lt;/font&gt;&lt;/div&gt;" style="swimlane;fontStyle=0;childLayout=stackLayout;horizontal=1;startSize=40;fillColor=#647687;horizontalStack=0;resizeParent=1;resizeParentMax=0;resizeLast=0;collapsible=1;marginBottom=0;whiteSpace=wrap;html=1;fontColor=#ffffff;strokeColor=#314354;" vertex="1" parent="1">
          <mxGeometry x="450" y="40" width="150" height="66" as="geometry" />
        </mxCell>
        <mxCell id="63Evb4M67FqfuCzrcVg2-27" value="&lt;div&gt;&amp;lt;&amp;lt;classe abstrata&amp;gt;&amp;gt;&lt;/div&gt;&lt;div&gt;&lt;font style=&quot;font-size: 14px;&quot;&gt;AntigosPrimeiro&lt;/font&gt;&lt;/div&gt;" style="swimlane;fontStyle=0;childLayout=stackLayout;horizontal=1;startSize=40;fillColor=#647687;horizontalStack=0;resizeParent=1;resizeParentMax=0;resizeLast=0;collapsible=1;marginBottom=0;whiteSpace=wrap;html=1;fontColor=#ffffff;strokeColor=#314354;" vertex="1" parent="1">
          <mxGeometry x="354" y="173" width="150" height="66" as="geometry" />
        </mxCell>
        <mxCell id="63Evb4M67FqfuCzrcVg2-28" value="" style="endArrow=block;html=1;endSize=12;startArrow=none;startSize=12;startFill=0;edgeStyle=orthogonalEdgeStyle;rounded=0;exitX=0.5;exitY=0;exitDx=0;exitDy=0;entryX=0.5;entryY=1;entryDx=0;entryDy=0;endFill=0;" edge="1" parent="1" source="GjpR1vbcMMokd3FTTjFa-50" target="63Evb4M67FqfuCzrcVg2-27">
          <mxGeometry relative="1" as="geometry">
            <mxPoint x="708" y="156" as="sourcePoint" />
            <mxPoint x="460" y="60" as="targetPoint" />
            <Array as="points">
              <mxPoint x="415" y="260" />
              <mxPoint x="429" y="260" />
            </Array>
          </mxGeometry>
        </mxCell>
        <mxCell id="63Evb4M67FqfuCzrcVg2-29" value="" style="endArrow=block;html=1;endSize=12;startArrow=none;startSize=12;startFill=0;edgeStyle=orthogonalEdgeStyle;rounded=0;exitX=0.5;exitY=0;exitDx=0;exitDy=0;entryX=0.5;entryY=1;entryDx=0;entryDy=0;endFill=0;" edge="1" parent="1" source="GjpR1vbcMMokd3FTTjFa-52" target="63Evb4M67FqfuCzrcVg2-27">
          <mxGeometry relative="1" as="geometry">
            <mxPoint x="520" y="321" as="sourcePoint" />
            <mxPoint x="520" y="270" as="targetPoint" />
            <Array as="points">
              <mxPoint x="585" y="260" />
              <mxPoint x="429" y="260" />
            </Array>
          </mxGeometry>
        </mxCell>
        <mxCell id="63Evb4M67FqfuCzrcVg2-30" value="" style="endArrow=block;html=1;endSize=12;startArrow=none;startSize=12;startFill=0;edgeStyle=orthogonalEdgeStyle;rounded=0;entryX=1;entryY=0.5;entryDx=0;entryDy=0;endFill=0;exitX=0.5;exitY=0;exitDx=0;exitDy=0;" edge="1" parent="1" source="63Evb4M67FqfuCzrcVg2-27" target="GjpR1vbcMMokd3FTTjFa-43">
          <mxGeometry relative="1" as="geometry">
            <mxPoint x="440" y="140" as="sourcePoint" />
            <mxPoint x="650" y="220" as="targetPoint" />
            <Array as="points">
              <mxPoint x="429" y="90" />
            </Array>
          </mxGeometry>
        </mxCell>
        <mxCell id="63Evb4M67FqfuCzrcVg2-31" value="" style="endArrow=block;html=1;endSize=12;startArrow=none;startSize=12;startFill=0;edgeStyle=orthogonalEdgeStyle;rounded=0;exitX=0;exitY=0.5;exitDx=0;exitDy=0;endFill=0;entryX=0.5;entryY=1;entryDx=0;entryDy=0;" edge="1" parent="1" source="GjpR1vbcMMokd3FTTjFa-53" target="63Evb4M67FqfuCzrcVg2-23">
          <mxGeometry relative="1" as="geometry">
            <mxPoint x="687" y="210" as="sourcePoint" />
            <mxPoint x="560" y="150" as="targetPoint" />
          </mxGeometry>
        </mxCell>
        <mxCell id="63Evb4M67FqfuCzrcVg2-32" value="" style="endArrow=block;html=1;endSize=12;startArrow=none;startSize=12;startFill=0;edgeStyle=orthogonalEdgeStyle;rounded=0;exitX=0;exitY=0.75;exitDx=0;exitDy=0;endFill=0;entryX=0.5;entryY=1;entryDx=0;entryDy=0;" edge="1" parent="1" source="GjpR1vbcMMokd3FTTjFa-55" target="63Evb4M67FqfuCzrcVg2-23">
          <mxGeometry relative="1" as="geometry">
            <mxPoint x="687" y="200" as="sourcePoint" />
            <mxPoint x="560" y="140" as="targetPoint" />
            <Array as="points">
              <mxPoint x="626" y="80" />
              <mxPoint x="626" y="130" />
              <mxPoint x="525" y="130" />
            </Array>
          </mxGeometry>
        </mxCell>
        <mxCell id="63Evb4M67FqfuCzrcVg2-33" value="" style="endArrow=block;html=1;endSize=12;startArrow=none;startSize=12;startFill=0;edgeStyle=orthogonalEdgeStyle;rounded=0;entryX=1;entryY=0.5;entryDx=0;entryDy=0;endFill=0;exitX=0;exitY=0.75;exitDx=0;exitDy=0;" edge="1" parent="1" source="63Evb4M67FqfuCzrcVg2-23" target="GjpR1vbcMMokd3FTTjFa-43">
          <mxGeometry relative="1" as="geometry">
            <mxPoint x="440" y="90" as="sourcePoint" />
            <mxPoint x="430" y="150" as="targetPoint" />
            <Array as="points">
              <mxPoint x="404" y="90" />
            </Array>
          </mxGeometry>
        </mxCell>
        <mxCell id="63Evb4M67FqfuCzrcVg2-46" value="&amp;lt;&amp;lt;objeto de valor&amp;gt;&amp;gt;&lt;br&gt;&amp;lt;&amp;lt;enum&amp;gt;&amp;gt;&lt;br&gt;&lt;font style=&quot;font-size: 14px;&quot;&gt;Patente&lt;/font&gt;" style="swimlane;fontStyle=0;childLayout=stackLayout;horizontal=1;startSize=50;fillColor=#647687;horizontalStack=0;resizeParent=1;resizeParentMax=0;resizeLast=0;collapsible=1;marginBottom=0;whiteSpace=wrap;html=1;fontColor=#ffffff;strokeColor=#314354;" vertex="1" parent="1">
          <mxGeometry x="600" y="350" width="170" height="180" as="geometry">
            <mxRectangle x="54" y="61" width="90" height="30" as="alternateBounds" />
          </mxGeometry>
        </mxCell>
        <mxCell id="63Evb4M67FqfuCzrcVg2-47" value="- TEN: Enum" style="text;strokeColor=none;fillColor=none;align=left;verticalAlign=top;spacingLeft=4;spacingRight=4;overflow=hidden;rotatable=0;points=[[0,0.5],[1,0.5]];portConstraint=eastwest;whiteSpace=wrap;html=1;" vertex="1" parent="63Evb4M67FqfuCzrcVg2-46">
          <mxGeometry y="50" width="170" height="26" as="geometry" />
        </mxCell>
        <mxCell id="63Evb4M67FqfuCzrcVg2-48" value="- SUBTEN: Enum" style="text;strokeColor=none;fillColor=none;align=left;verticalAlign=top;spacingLeft=4;spacingRight=4;overflow=hidden;rotatable=0;points=[[0,0.5],[1,0.5]];portConstraint=eastwest;whiteSpace=wrap;html=1;" vertex="1" parent="63Evb4M67FqfuCzrcVg2-46">
          <mxGeometry y="76" width="170" height="26" as="geometry" />
        </mxCell>
        <mxCell id="63Evb4M67FqfuCzrcVg2-49" value="- SGT: Enum" style="text;strokeColor=none;fillColor=none;align=left;verticalAlign=top;spacingLeft=4;spacingRight=4;overflow=hidden;rotatable=0;points=[[0,0.5],[1,0.5]];portConstraint=eastwest;whiteSpace=wrap;html=1;" vertex="1" parent="63Evb4M67FqfuCzrcVg2-46">
          <mxGeometry y="102" width="170" height="26" as="geometry" />
        </mxCell>
        <mxCell id="63Evb4M67FqfuCzrcVg2-50" value="- CB: Enum" style="text;strokeColor=none;fillColor=none;align=left;verticalAlign=top;spacingLeft=4;spacingRight=4;overflow=hidden;rotatable=0;points=[[0,0.5],[1,0.5]];portConstraint=eastwest;whiteSpace=wrap;html=1;" vertex="1" parent="63Evb4M67FqfuCzrcVg2-46">
          <mxGeometry y="128" width="170" height="26" as="geometry" />
        </mxCell>
        <mxCell id="63Evb4M67FqfuCzrcVg2-51" value="- SB: Enum" style="text;strokeColor=none;fillColor=none;align=left;verticalAlign=top;spacingLeft=4;spacingRight=4;overflow=hidden;rotatable=0;points=[[0,0.5],[1,0.5]];portConstraint=eastwest;whiteSpace=wrap;html=1;" vertex="1" parent="63Evb4M67FqfuCzrcVg2-46">
          <mxGeometry y="154" width="170" height="26" as="geometry" />
        </mxCell>
        <mxCell id="63Evb4M67FqfuCzrcVg2-52" value="" style="endArrow=none;html=1;endSize=12;startArrow=diamondThin;startSize=12;startFill=0;edgeStyle=orthogonalEdgeStyle;rounded=0;exitX=1;exitY=0.5;exitDx=0;exitDy=0;entryX=0;entryY=0.5;entryDx=0;entryDy=0;" edge="1" parent="1" source="63Evb4M67FqfuCzrcVg2-36" target="63Evb4M67FqfuCzrcVg2-48">
          <mxGeometry relative="1" as="geometry">
            <mxPoint x="665" y="572" as="sourcePoint" />
            <mxPoint x="550" y="594" as="targetPoint" />
          </mxGeometry>
        </mxCell>
        <mxCell id="63Evb4M67FqfuCzrcVg2-53" value="&lt;span style=&quot;text-align: right;&quot;&gt;1..n&lt;/span&gt;" style="edgeLabel;resizable=0;html=1;align=left;verticalAlign=top;" connectable="0" vertex="1" parent="63Evb4M67FqfuCzrcVg2-52">
          <mxGeometry x="-1" relative="1" as="geometry">
            <mxPoint x="11" y="-22" as="offset" />
          </mxGeometry>
        </mxCell>
        <mxCell id="63Evb4M67FqfuCzrcVg2-54" value="1" style="edgeLabel;resizable=0;html=1;align=right;verticalAlign=top;" connectable="0" vertex="1" parent="63Evb4M67FqfuCzrcVg2-52">
          <mxGeometry x="1" relative="1" as="geometry">
            <mxPoint x="-3" y="-22" as="offset" />
          </mxGeometry>
        </mxCell>
      </root>
    </mxGraphModel>
  </diagram>
</mxfile>
